<mxfile host="app.diagrams.net" agent="Mozilla/5.0 (Windows NT 10.0; Win64; x64) AppleWebKit/537.36 (KHTML, like Gecko) Chrome/141.0.0.0 Safari/537.36" version="28.2.8" pages="3">
  <diagram id="bai8_uc" name="Bai8_UseCase_QuanLySinhVien">
    <mxGraphModel dx="3750" dy="1403" grid="1" gridSize="10" guides="1" tooltips="1" connect="1" arrows="1" fold="1" page="1" pageScale="1" pageWidth="1400" pageHeight="1200" math="0" shadow="0">
      <root>
        <mxCell id="0" />
        <mxCell id="1" parent="0" />
        <mxCell id="actor_giaovien" value="Giáo viên" style="shape=umlActor;verticalLabelPosition=bottom;verticalAlign=top;html=1;" parent="1" vertex="1">
          <mxGeometry x="80" y="300" width="60" height="100" as="geometry" />
        </mxCell>
        <mxCell id="sysBoundary" value="" style="shape=rectangle;whiteSpace=wrap;html=1;strokeWidth=2;rounded=0;" parent="1" vertex="1">
          <mxGeometry x="240" y="150" width="700" height="490" as="geometry" />
        </mxCell>
        <mxCell id="sysTitle" value="Hệ thống quản lý sinh viên" style="text;html=1;align=center;verticalAlign=middle;whiteSpace=wrap;rounded=0;" parent="sysBoundary" vertex="1">
          <mxGeometry x="230" width="220" height="36.75" as="geometry" />
        </mxCell>
        <mxCell id="uc_them" value="Thêm sinh viên" style="ellipse;whiteSpace=wrap;html=1;aspect=fixed;" parent="sysBoundary" vertex="1">
          <mxGeometry x="60" y="202.75862068965517" width="101.37931034482759" height="50.689655172413794" as="geometry" />
        </mxCell>
        <mxCell id="uc_sua" value="Sửa thông tin sinh viên" style="ellipse;whiteSpace=wrap;html=1;aspect=fixed;" parent="sysBoundary" vertex="1">
          <mxGeometry x="45.71" y="36.75" width="130.34844827586207" height="50.689655172413794" as="geometry" />
        </mxCell>
        <mxCell id="uc_xoa" value="Xóa sinh viên" style="ellipse;whiteSpace=wrap;html=1;aspect=fixed;" parent="sysBoundary" vertex="1">
          <mxGeometry x="60" y="118.27586206896552" width="84.48275862068965" height="42.241379310344826" as="geometry" />
        </mxCell>
        <mxCell id="uc_xem" value="Xem danh sách sinh viên" style="ellipse;whiteSpace=wrap;html=1;aspect=fixed;" parent="sysBoundary" vertex="1">
          <mxGeometry x="60" y="337.9310344827586" width="130.34844827586207" height="50.689655172413794" as="geometry" />
        </mxCell>
        <mxCell id="uc_xacthuc" value="Xác thực người dùng" style="ellipse;whiteSpace=wrap;html=1;aspect=fixed;" parent="sysBoundary" vertex="1">
          <mxGeometry x="390" y="87.4396551724138" width="96.55534482758621" height="42.241379310344826" as="geometry" />
        </mxCell>
        <mxCell id="uc_kiemtra" value="Kiểm tra dữ liệu" style="ellipse;whiteSpace=wrap;html=1;aspect=fixed;" parent="sysBoundary" vertex="1">
          <mxGeometry x="410" y="185.86206896551724" width="115.85965517241378" height="50.689655172413794" as="geometry" />
        </mxCell>
        <mxCell id="uc_luu" value="Lưu dữ liệu" style="ellipse;whiteSpace=wrap;html=1;aspect=fixed;" parent="sysBoundary" vertex="1">
          <mxGeometry x="410" y="261.89655172413796" width="96.55534482758621" height="42.241379310344826" as="geometry" />
        </mxCell>
        <mxCell id="include_xacthuc_them" value="«include»" style="endArrow=open;dashed=1;html=1;fontSize=12;labelBackgroundColor=#ffffff;exitX=1;exitY=0.5;exitDx=0;exitDy=0;entryX=0;entryY=0.5;entryDx=0;entryDy=0;entryPerimeter=0;" parent="sysBoundary" source="uc_them" target="uc_xacthuc" edge="1">
          <mxGeometry width="160" relative="1" as="geometry">
            <mxPoint x="400" y="287.875" as="sourcePoint" />
            <mxPoint x="580" y="287.875" as="targetPoint" />
            <mxPoint y="-10" as="offset" />
          </mxGeometry>
        </mxCell>
        <mxCell id="include_kiemtra_them" value="«include»" style="endArrow=open;dashed=1;html=1;fontSize=12;labelBackgroundColor=#ffffff;exitX=1;exitY=0.5;exitDx=0;exitDy=0;entryX=0;entryY=0.5;entryDx=0;entryDy=0;entryPerimeter=0;" parent="sysBoundary" source="uc_them" target="uc_kiemtra" edge="1">
          <mxGeometry width="160" relative="1" as="geometry">
            <mxPoint x="400" y="287.875" as="sourcePoint" />
            <mxPoint x="580" y="410.375" as="targetPoint" />
            <mxPoint y="-10" as="offset" />
          </mxGeometry>
        </mxCell>
        <mxCell id="include_luu_them" value="«include»" style="endArrow=open;dashed=1;html=1;fontSize=12;labelBackgroundColor=#ffffff;exitX=1;exitY=0.5;exitDx=0;exitDy=0;entryX=0;entryY=0.5;entryDx=0;entryDy=0;entryPerimeter=0;" parent="sysBoundary" source="uc_them" target="uc_luu" edge="1">
          <mxGeometry width="160" relative="1" as="geometry">
            <mxPoint x="400" y="287.875" as="sourcePoint" />
            <mxPoint x="580" y="532.875" as="targetPoint" />
            <mxPoint y="-10" as="offset" />
          </mxGeometry>
        </mxCell>
        <mxCell id="include_xacthuc_sua" value="«include»" style="endArrow=open;dashed=1;html=1;fontSize=12;labelBackgroundColor=#ffffff;exitX=1;exitY=0.5;exitDx=0;exitDy=0;entryX=0;entryY=0.5;entryDx=0;entryDy=0;entryPerimeter=0;" parent="sysBoundary" source="uc_sua" target="uc_xacthuc" edge="1">
          <mxGeometry width="160" relative="1" as="geometry">
            <mxPoint x="400" y="410.375" as="sourcePoint" />
            <mxPoint x="580" y="287.875" as="targetPoint" />
            <mxPoint y="-10" as="offset" />
          </mxGeometry>
        </mxCell>
        <mxCell id="include_xacthuc_xoa" value="«include»" style="endArrow=open;dashed=1;html=1;fontSize=12;labelBackgroundColor=#ffffff;exitX=1;exitY=0.5;exitDx=0;exitDy=0;entryX=0;entryY=0.5;entryDx=0;entryDy=0;entryPerimeter=0;" parent="sysBoundary" source="uc_xoa" target="uc_xacthuc" edge="1">
          <mxGeometry width="160" relative="1" as="geometry">
            <mxPoint x="400" y="532.875" as="sourcePoint" />
            <mxPoint x="580" y="287.875" as="targetPoint" />
            <mxPoint y="-10" as="offset" />
          </mxGeometry>
        </mxCell>
        <mxCell id="assoc_giaovien_them" style="endArrow=none;html=1;" parent="1" source="actor_giaovien" target="uc_them" edge="1">
          <mxGeometry relative="1" as="geometry" />
        </mxCell>
        <mxCell id="assoc_giaovien_sua" style="endArrow=none;html=1;" parent="1" source="actor_giaovien" target="uc_sua" edge="1">
          <mxGeometry relative="1" as="geometry" />
        </mxCell>
        <mxCell id="assoc_giaovien_xoa" style="endArrow=none;html=1;" parent="1" source="actor_giaovien" target="uc_xoa" edge="1">
          <mxGeometry relative="1" as="geometry" />
        </mxCell>
        <mxCell id="assoc_giaovien_xem" style="endArrow=none;html=1;" parent="1" source="actor_giaovien" target="uc_xem" edge="1">
          <mxGeometry relative="1" as="geometry" />
        </mxCell>
        <mxCell id="6UkRKTPdXCqqe6gz64OY-1" value="Sinh viên" style="swimlane;fontStyle=1;align=center;verticalAlign=top;childLayout=stackLayout;horizontal=1;startSize=26;horizontalStack=0;resizeParent=1;resizeParentMax=0;resizeLast=0;collapsible=1;marginBottom=0;whiteSpace=wrap;html=1;" vertex="1" parent="1">
          <mxGeometry x="140" y="840" width="200" height="170" as="geometry" />
        </mxCell>
        <mxCell id="6UkRKTPdXCqqe6gz64OY-2" value="+ maSinhVien: String" style="text;strokeColor=none;fillColor=none;align=left;verticalAlign=top;spacingLeft=4;spacingRight=4;overflow=hidden;rotatable=0;points=[[0,0.5],[1,0.5]];portConstraint=eastwest;whiteSpace=wrap;html=1;" vertex="1" parent="6UkRKTPdXCqqe6gz64OY-1">
          <mxGeometry y="26" width="200" height="26" as="geometry" />
        </mxCell>
        <mxCell id="6UkRKTPdXCqqe6gz64OY-3" value="+ hoTen: String" style="text;strokeColor=none;fillColor=none;align=left;verticalAlign=top;spacingLeft=4;spacingRight=4;overflow=hidden;rotatable=0;points=[[0,0.5],[1,0.5]];portConstraint=eastwest;whiteSpace=wrap;html=1;" vertex="1" parent="6UkRKTPdXCqqe6gz64OY-1">
          <mxGeometry y="52" width="200" height="26" as="geometry" />
        </mxCell>
        <mxCell id="6UkRKTPdXCqqe6gz64OY-4" value="+ email: String" style="text;strokeColor=none;fillColor=none;align=left;verticalAlign=top;spacingLeft=4;spacingRight=4;overflow=hidden;rotatable=0;points=[[0,0.5],[1,0.5]];portConstraint=eastwest;whiteSpace=wrap;html=1;" vertex="1" parent="6UkRKTPdXCqqe6gz64OY-1">
          <mxGeometry y="78" width="200" height="26" as="geometry" />
        </mxCell>
        <mxCell id="6UkRKTPdXCqqe6gz64OY-5" value="" style="line;strokeWidth=1;fillColor=none;align=left;verticalAlign=middle;spacingTop=-1;spacingLeft=3;spacingRight=3;rotatable=0;labelPosition=right;points=[];portConstraint=eastwest;strokeColor=inherit;" vertex="1" parent="6UkRKTPdXCqqe6gz64OY-1">
          <mxGeometry y="104" width="200" height="8" as="geometry" />
        </mxCell>
        <mxCell id="6UkRKTPdXCqqe6gz64OY-6" value="+ xemThongTin(): void" style="text;strokeColor=none;fillColor=none;align=left;verticalAlign=top;spacingLeft=4;spacingRight=4;overflow=hidden;rotatable=0;points=[[0,0.5],[1,0.5]];portConstraint=eastwest;whiteSpace=wrap;html=1;" vertex="1" parent="6UkRKTPdXCqqe6gz64OY-1">
          <mxGeometry y="112" width="200" height="26" as="geometry" />
        </mxCell>
        <mxCell id="6UkRKTPdXCqqe6gz64OY-7" value="+ capNhatThongTin(): void" style="text;strokeColor=none;fillColor=none;align=left;verticalAlign=top;spacingLeft=4;spacingRight=4;overflow=hidden;rotatable=0;points=[[0,0.5],[1,0.5]];portConstraint=eastwest;whiteSpace=wrap;html=1;" vertex="1" parent="6UkRKTPdXCqqe6gz64OY-1">
          <mxGeometry y="138" width="200" height="32" as="geometry" />
        </mxCell>
        <mxCell id="6UkRKTPdXCqqe6gz64OY-8" value="Hệ thống quản lý" style="swimlane;fontStyle=1;align=center;verticalAlign=top;childLayout=stackLayout;horizontal=1;startSize=26;horizontalStack=0;resizeParent=1;resizeParentMax=0;resizeLast=0;collapsible=1;marginBottom=0;whiteSpace=wrap;html=1;" vertex="1" parent="1">
          <mxGeometry x="440" y="840" width="200" height="242" as="geometry" />
        </mxCell>
        <mxCell id="6UkRKTPdXCqqe6gz64OY-9" value="+ maHeThong: String" style="text;strokeColor=none;fillColor=none;align=left;verticalAlign=top;spacingLeft=4;spacingRight=4;overflow=hidden;rotatable=0;points=[[0,0.5],[1,0.5]];portConstraint=eastwest;whiteSpace=wrap;html=1;" vertex="1" parent="6UkRKTPdXCqqe6gz64OY-8">
          <mxGeometry y="26" width="200" height="26" as="geometry" />
        </mxCell>
        <mxCell id="6UkRKTPdXCqqe6gz64OY-10" value="" style="line;strokeWidth=1;fillColor=none;align=left;verticalAlign=middle;spacingTop=-1;spacingLeft=3;spacingRight=3;rotatable=0;labelPosition=right;points=[];portConstraint=eastwest;strokeColor=inherit;" vertex="1" parent="6UkRKTPdXCqqe6gz64OY-8">
          <mxGeometry y="52" width="200" height="8" as="geometry" />
        </mxCell>
        <mxCell id="6UkRKTPdXCqqe6gz64OY-11" value="+ themSinhVien(): boolean" style="text;strokeColor=none;fillColor=none;align=left;verticalAlign=top;spacingLeft=4;spacingRight=4;overflow=hidden;rotatable=0;points=[[0,0.5],[1,0.5]];portConstraint=eastwest;whiteSpace=wrap;html=1;" vertex="1" parent="6UkRKTPdXCqqe6gz64OY-8">
          <mxGeometry y="60" width="200" height="26" as="geometry" />
        </mxCell>
        <mxCell id="6UkRKTPdXCqqe6gz64OY-12" value="+ suaSinhVien(): boolean" style="text;strokeColor=none;fillColor=none;align=left;verticalAlign=top;spacingLeft=4;spacingRight=4;overflow=hidden;rotatable=0;points=[[0,0.5],[1,0.5]];portConstraint=eastwest;whiteSpace=wrap;html=1;" vertex="1" parent="6UkRKTPdXCqqe6gz64OY-8">
          <mxGeometry y="86" width="200" height="26" as="geometry" />
        </mxCell>
        <mxCell id="6UkRKTPdXCqqe6gz64OY-13" value="+ xoaSinhVien(): boolean" style="text;strokeColor=none;fillColor=none;align=left;verticalAlign=top;spacingLeft=4;spacingRight=4;overflow=hidden;rotatable=0;points=[[0,0.5],[1,0.5]];portConstraint=eastwest;whiteSpace=wrap;html=1;" vertex="1" parent="6UkRKTPdXCqqe6gz64OY-8">
          <mxGeometry y="112" width="200" height="26" as="geometry" />
        </mxCell>
        <mxCell id="6UkRKTPdXCqqe6gz64OY-14" value="+ xemDanhSachSinhVien(): void" style="text;strokeColor=none;fillColor=none;align=left;verticalAlign=top;spacingLeft=4;spacingRight=4;overflow=hidden;rotatable=0;points=[[0,0.5],[1,0.5]];portConstraint=eastwest;whiteSpace=wrap;html=1;" vertex="1" parent="6UkRKTPdXCqqe6gz64OY-8">
          <mxGeometry y="138" width="200" height="26" as="geometry" />
        </mxCell>
        <mxCell id="6UkRKTPdXCqqe6gz64OY-15" value="+ xacThucNguoiDung(): boolean" style="text;strokeColor=none;fillColor=none;align=left;verticalAlign=top;spacingLeft=4;spacingRight=4;overflow=hidden;rotatable=0;points=[[0,0.5],[1,0.5]];portConstraint=eastwest;whiteSpace=wrap;html=1;" vertex="1" parent="6UkRKTPdXCqqe6gz64OY-8">
          <mxGeometry y="164" width="200" height="26" as="geometry" />
        </mxCell>
        <mxCell id="6UkRKTPdXCqqe6gz64OY-16" value="+ luuDuLieu(): boolean" style="text;strokeColor=none;fillColor=none;align=left;verticalAlign=top;spacingLeft=4;spacingRight=4;overflow=hidden;rotatable=0;points=[[0,0.5],[1,0.5]];portConstraint=eastwest;whiteSpace=wrap;html=1;" vertex="1" parent="6UkRKTPdXCqqe6gz64OY-8">
          <mxGeometry y="190" width="200" height="26" as="geometry" />
        </mxCell>
        <mxCell id="6UkRKTPdXCqqe6gz64OY-17" value="+ kiemTraDuLieu(): boolean" style="text;strokeColor=none;fillColor=none;align=left;verticalAlign=top;spacingLeft=4;spacingRight=4;overflow=hidden;rotatable=0;points=[[0,0.5],[1,0.5]];portConstraint=eastwest;whiteSpace=wrap;html=1;" vertex="1" parent="6UkRKTPdXCqqe6gz64OY-8">
          <mxGeometry y="216" width="200" height="26" as="geometry" />
        </mxCell>
        <mxCell id="6UkRKTPdXCqqe6gz64OY-18" value="Giáo viên" style="swimlane;fontStyle=1;align=center;verticalAlign=top;childLayout=stackLayout;horizontal=1;startSize=26;horizontalStack=0;resizeParent=1;resizeParentMax=0;resizeLast=0;collapsible=1;marginBottom=0;whiteSpace=wrap;html=1;" vertex="1" parent="1">
          <mxGeometry x="740" y="840" width="200" height="164" as="geometry" />
        </mxCell>
        <mxCell id="6UkRKTPdXCqqe6gz64OY-19" value="+ maGiaoVien: String" style="text;strokeColor=none;fillColor=none;align=left;verticalAlign=top;spacingLeft=4;spacingRight=4;overflow=hidden;rotatable=0;points=[[0,0.5],[1,0.5]];portConstraint=eastwest;whiteSpace=wrap;html=1;" vertex="1" parent="6UkRKTPdXCqqe6gz64OY-18">
          <mxGeometry y="26" width="200" height="26" as="geometry" />
        </mxCell>
        <mxCell id="6UkRKTPdXCqqe6gz64OY-20" value="+ hoTen: String" style="text;strokeColor=none;fillColor=none;align=left;verticalAlign=top;spacingLeft=4;spacingRight=4;overflow=hidden;rotatable=0;points=[[0,0.5],[1,0.5]];portConstraint=eastwest;whiteSpace=wrap;html=1;" vertex="1" parent="6UkRKTPdXCqqe6gz64OY-18">
          <mxGeometry y="52" width="200" height="26" as="geometry" />
        </mxCell>
        <mxCell id="6UkRKTPdXCqqe6gz64OY-21" value="+ boMon: String" style="text;strokeColor=none;fillColor=none;align=left;verticalAlign=top;spacingLeft=4;spacingRight=4;overflow=hidden;rotatable=0;points=[[0,0.5],[1,0.5]];portConstraint=eastwest;whiteSpace=wrap;html=1;" vertex="1" parent="6UkRKTPdXCqqe6gz64OY-18">
          <mxGeometry y="78" width="200" height="26" as="geometry" />
        </mxCell>
        <mxCell id="6UkRKTPdXCqqe6gz64OY-22" value="" style="line;strokeWidth=1;fillColor=none;align=left;verticalAlign=middle;spacingTop=-1;spacingLeft=3;spacingRight=3;rotatable=0;labelPosition=right;points=[];portConstraint=eastwest;strokeColor=inherit;" vertex="1" parent="6UkRKTPdXCqqe6gz64OY-18">
          <mxGeometry y="104" width="200" height="8" as="geometry" />
        </mxCell>
        <mxCell id="6UkRKTPdXCqqe6gz64OY-23" value="+ dangNhap(): boolean" style="text;strokeColor=none;fillColor=none;align=left;verticalAlign=top;spacingLeft=4;spacingRight=4;overflow=hidden;rotatable=0;points=[[0,0.5],[1,0.5]];portConstraint=eastwest;whiteSpace=wrap;html=1;" vertex="1" parent="6UkRKTPdXCqqe6gz64OY-18">
          <mxGeometry y="112" width="200" height="26" as="geometry" />
        </mxCell>
        <mxCell id="6UkRKTPdXCqqe6gz64OY-24" value="+ quanLySinhVien(): void" style="text;strokeColor=none;fillColor=none;align=left;verticalAlign=top;spacingLeft=4;spacingRight=4;overflow=hidden;rotatable=0;points=[[0,0.5],[1,0.5]];portConstraint=eastwest;whiteSpace=wrap;html=1;" vertex="1" parent="6UkRKTPdXCqqe6gz64OY-18">
          <mxGeometry y="138" width="200" height="26" as="geometry" />
        </mxCell>
        <mxCell id="6UkRKTPdXCqqe6gz64OY-25" value="" style="shape=umlLifeline;perimeter=lifelinePerimeter;html=1;container=1;participant=umlActor;" vertex="1" parent="1">
          <mxGeometry x="97" y="1270" width="16" height="900" as="geometry" />
        </mxCell>
        <mxCell id="6UkRKTPdXCqqe6gz64OY-26" value="Người dùng&#xa;(Giáo viên)" style="text;html=1;whiteSpace=wrap;strokeColor=none;fillColor=none;align=center;verticalAlign=middle;rounded=0;" vertex="1" parent="1">
          <mxGeometry x="50" y="1240" width="110" height="30" as="geometry" />
        </mxCell>
        <mxCell id="6UkRKTPdXCqqe6gz64OY-27" value=":Hệ thống quản lý" style="shape=umlLifeline;perimeter=lifelinePerimeter;html=1;container=1;" vertex="1" parent="1">
          <mxGeometry x="270" y="1270" width="160" height="900" as="geometry" />
        </mxCell>
        <mxCell id="6UkRKTPdXCqqe6gz64OY-28" value="" style="html=1;points=[[0,0,0,0,5],[0,1,0,0,-5],[1,0,0,0,5],[1,1,0,0,-5]];perimeter=orthogonalPerimeter;outlineConnect=0;targetShapes=umlLifeline;portConstraint=eastwest;newEdgeStyle={&quot;curved&quot;:0,&quot;rounded&quot;:0};" vertex="1" parent="6UkRKTPdXCqqe6gz64OY-27">
          <mxGeometry x="70" y="140" width="10" height="70" as="geometry" />
        </mxCell>
        <mxCell id="6UkRKTPdXCqqe6gz64OY-29" value="" style="html=1;points=[[0,0,0,0,5],[0,1,0,0,-5],[1,0,0,0,5],[1,1,0,0,-5]];perimeter=orthogonalPerimeter;outlineConnect=0;targetShapes=umlLifeline;portConstraint=eastwest;newEdgeStyle={&quot;curved&quot;:0,&quot;rounded&quot;:0};" vertex="1" parent="6UkRKTPdXCqqe6gz64OY-27">
          <mxGeometry x="75" y="290" width="10" height="80" as="geometry" />
        </mxCell>
        <mxCell id="6UkRKTPdXCqqe6gz64OY-30" value="" style="html=1;points=[[0,0,0,0,5],[0,1,0,0,-5],[1,0,0,0,5],[1,1,0,0,-5]];perimeter=orthogonalPerimeter;outlineConnect=0;targetShapes=umlLifeline;portConstraint=eastwest;newEdgeStyle={&quot;curved&quot;:0,&quot;rounded&quot;:0};" vertex="1" parent="6UkRKTPdXCqqe6gz64OY-27">
          <mxGeometry x="75" y="390" width="10" height="100" as="geometry" />
        </mxCell>
        <mxCell id="6UkRKTPdXCqqe6gz64OY-31" value=":Cơ sở dữ liệu" style="shape=umlLifeline;perimeter=lifelinePerimeter;html=1;container=1;" vertex="1" parent="1">
          <mxGeometry x="520" y="1270" width="150" height="900" as="geometry" />
        </mxCell>
        <mxCell id="6UkRKTPdXCqqe6gz64OY-32" value="" style="html=1;points=[[0,0,0,0,5],[0,1,0,0,-5],[1,0,0,0,5],[1,1,0,0,-5]];perimeter=orthogonalPerimeter;outlineConnect=0;targetShapes=umlLifeline;portConstraint=eastwest;newEdgeStyle={&quot;curved&quot;:0,&quot;rounded&quot;:0};" vertex="1" parent="6UkRKTPdXCqqe6gz64OY-31">
          <mxGeometry x="70" y="280" width="10" height="80" as="geometry" />
        </mxCell>
        <mxCell id="6UkRKTPdXCqqe6gz64OY-33" value="" style="html=1;points=[[0,0,0,0,5],[0,1,0,0,-5],[1,0,0,0,5],[1,1,0,0,-5]];perimeter=orthogonalPerimeter;outlineConnect=0;targetShapes=umlLifeline;portConstraint=eastwest;newEdgeStyle={&quot;curved&quot;:0,&quot;rounded&quot;:0};" vertex="1" parent="6UkRKTPdXCqqe6gz64OY-31">
          <mxGeometry x="70" y="390" width="10" height="60" as="geometry" />
        </mxCell>
        <mxCell id="6UkRKTPdXCqqe6gz64OY-34" value="" style="html=1;points=[[0,0,0,0,5],[0,1,0,0,-5],[1,0,0,0,5],[1,1,0,0,-5]];perimeter=orthogonalPerimeter;outlineConnect=0;targetShapes=umlLifeline;portConstraint=eastwest;newEdgeStyle={&quot;curved&quot;:0,&quot;rounded&quot;:0};" vertex="1" parent="6UkRKTPdXCqqe6gz64OY-31">
          <mxGeometry x="70" y="130" width="10" height="80" as="geometry" />
        </mxCell>
        <mxCell id="6UkRKTPdXCqqe6gz64OY-35" value="1. themSinhVien(thongTinSinhVien)" style="endArrow=classic;html=1;" edge="1" parent="1">
          <mxGeometry relative="1" as="geometry">
            <mxPoint x="105" y="1350" as="sourcePoint" />
            <mxPoint x="350" y="1350" as="targetPoint" />
          </mxGeometry>
        </mxCell>
        <mxCell id="6UkRKTPdXCqqe6gz64OY-36" value="2. kiemTraTaiKhoan(maGiaoVien)" style="endArrow=classic;html=1;" edge="1" parent="1" target="6UkRKTPdXCqqe6gz64OY-34">
          <mxGeometry relative="1" as="geometry">
            <mxPoint x="350" y="1420" as="sourcePoint" />
            <mxPoint x="595" y="1420" as="targetPoint" />
          </mxGeometry>
        </mxCell>
        <mxCell id="6UkRKTPdXCqqe6gz64OY-37" value="3. ketQuaXacThuc" style="endArrow=open;dashed=1;html=1;" edge="1" parent="1" source="6UkRKTPdXCqqe6gz64OY-34">
          <mxGeometry relative="1" as="geometry">
            <mxPoint x="595" y="1450" as="sourcePoint" />
            <mxPoint x="350" y="1450" as="targetPoint" />
          </mxGeometry>
        </mxCell>
        <mxCell id="6UkRKTPdXCqqe6gz64OY-38" value="4. kiemTraDuLieuSinhVien" style="endArrow=classic;html=1;" edge="1" parent="1">
          <mxGeometry relative="1" as="geometry">
            <mxPoint x="355" y="1589" as="sourcePoint" />
            <mxPoint x="590" y="1589" as="targetPoint" />
          </mxGeometry>
        </mxCell>
        <mxCell id="6UkRKTPdXCqqe6gz64OY-39" value="5. duLieuHopLe" style="endArrow=open;dashed=1;html=1;" edge="1" parent="1">
          <mxGeometry x="0.1837" relative="1" as="geometry">
            <mxPoint x="590" y="1620" as="sourcePoint" />
            <mxPoint x="355" y="1620" as="targetPoint" />
            <mxPoint as="offset" />
          </mxGeometry>
        </mxCell>
        <mxCell id="6UkRKTPdXCqqe6gz64OY-40" value="6. them(thongTinSinhVien)" style="endArrow=classic;html=1;" edge="1" parent="1">
          <mxGeometry relative="1" as="geometry">
            <mxPoint x="355" y="1676" as="sourcePoint" />
            <mxPoint x="590" y="1676" as="targetPoint" />
          </mxGeometry>
        </mxCell>
        <mxCell id="6UkRKTPdXCqqe6gz64OY-41" value="7. themThanhCong" style="endArrow=open;dashed=1;html=1;" edge="1" parent="1">
          <mxGeometry relative="1" as="geometry">
            <mxPoint x="590" y="1708" as="sourcePoint" />
            <mxPoint x="355" y="1708" as="targetPoint" />
          </mxGeometry>
        </mxCell>
        <mxCell id="6UkRKTPdXCqqe6gz64OY-42" value="8. thongBaoThemThanhCong" style="endArrow=open;dashed=1;html=1;" edge="1" parent="1" source="6UkRKTPdXCqqe6gz64OY-30">
          <mxGeometry relative="1" as="geometry">
            <mxPoint x="340" y="1741" as="sourcePoint" />
            <mxPoint x="105" y="1741" as="targetPoint" />
          </mxGeometry>
        </mxCell>
      </root>
    </mxGraphModel>
  </diagram>
  <diagram id="bai8_cd" name="Bai8_ClassDiagram_QuanLySinhVien">
    <mxGraphModel dx="1422" dy="794" grid="1" gridSize="10" guides="1" tooltips="1" connect="1" arrows="1" fold="1" page="1" pageScale="1" pageWidth="1400" pageHeight="1200" math="0" shadow="0">
      <root>
        <mxCell id="0" />
        <mxCell id="1" parent="0" />
        <mxCell id="class_sinhvien" value="Sinh viên" style="swimlane;fontStyle=1;align=center;verticalAlign=top;childLayout=stackLayout;horizontal=1;startSize=26;horizontalStack=0;resizeParent=1;resizeParentMax=0;resizeLast=0;collapsible=1;marginBottom=0;whiteSpace=wrap;html=1;" vertex="1" parent="1">
          <mxGeometry x="100" y="200" width="200" height="156" as="geometry" />
        </mxCell>
        <mxCell id="attr_sinhvien_1" value="- maSinhVien: String" style="text;strokeColor=none;fillColor=none;align=left;verticalAlign=top;spacingLeft=4;spacingRight=4;overflow=hidden;rotatable=0;points=[[0,0.5],[1,0.5]];portConstraint=eastwest;whiteSpace=wrap;html=1;" vertex="1" parent="class_sinhvien">
          <mxGeometry y="26" width="200" height="26" as="geometry" />
        </mxCell>
        <mxCell id="attr_sinhvien_2" value="- hoTen: String" style="text;strokeColor=none;fillColor=none;align=left;verticalAlign=top;spacingLeft=4;spacingRight=4;overflow=hidden;rotatable=0;points=[[0,0.5],[1,0.5]];portConstraint=eastwest;whiteSpace=wrap;html=1;" vertex="1" parent="class_sinhvien">
          <mxGeometry y="52" width="200" height="26" as="geometry" />
        </mxCell>
        <mxCell id="attr_sinhvien_3" value="- email: String" style="text;strokeColor=none;fillColor=none;align=left;verticalAlign=top;spacingLeft=4;spacingRight=4;overflow=hidden;rotatable=0;points=[[0,0.5],[1,0.5]];portConstraint=eastwest;whiteSpace=wrap;html=1;" vertex="1" parent="class_sinhvien">
          <mxGeometry y="78" width="200" height="26" as="geometry" />
        </mxCell>
        <mxCell id="line_sinhvien" value="" style="line;strokeWidth=1;fillColor=none;align=left;verticalAlign=middle;spacingTop=-1;spacingLeft=3;spacingRight=3;rotatable=0;labelPosition=right;points=[];portConstraint=eastwest;strokeColor=inherit;" vertex="1" parent="class_sinhvien">
          <mxGeometry y="104" width="200" height="8" as="geometry" />
        </mxCell>
        <mxCell id="method_sinhvien_1" value="+ xemThongTin(): void" style="text;strokeColor=none;fillColor=none;align=left;verticalAlign=top;spacingLeft=4;spacingRight=4;overflow=hidden;rotatable=0;points=[[0,0.5],[1,0.5]];portConstraint=eastwest;whiteSpace=wrap;html=1;" vertex="1" parent="class_sinhvien">
          <mxGeometry y="112" width="200" height="26" as="geometry" />
        </mxCell>
        <mxCell id="method_sinhvien_2" value="+ capNhatThongTin(): void" style="text;strokeColor=none;fillColor=none;align=left;verticalAlign=top;spacingLeft=4;spacingRight=4;overflow=hidden;rotatable=0;points=[[0,0.5],[1,0.5]];portConstraint=eastwest;whiteSpace=wrap;html=1;" vertex="1" parent="class_sinhvien">
          <mxGeometry y="138" width="200" height="26" as="geometry" />
        </mxCell>
        <mxCell id="class_quantri" value="Hệ thống quản lý" style="swimlane;fontStyle=1;align=center;verticalAlign=top;childLayout=stackLayout;horizontal=1;startSize=26;horizontalStack=0;resizeParent=1;resizeParentMax=0;resizeLast=0;collapsible=1;marginBottom=0;whiteSpace=wrap;html=1;" vertex="1" parent="1">
          <mxGeometry x="400" y="200" width="200" height="234" as="geometry" />
        </mxCell>
        <mxCell id="attr_quantri_1" value="- maHeThong: String" style="text;strokeColor=none;fillColor=none;align=left;verticalAlign=top;spacingLeft=4;spacingRight=4;overflow=hidden;rotatable=0;points=[[0,0.5],[1,0.5]];portConstraint=eastwest;whiteSpace=wrap;html=1;" vertex="1" parent="class_quantri">
          <mxGeometry y="26" width="200" height="26" as="geometry" />
        </mxCell>
        <mxCell id="line_quantri" value="" style="line;strokeWidth=1;fillColor=none;align=left;verticalAlign=middle;spacingTop=-1;spacingLeft=3;spacingRight=3;rotatable=0;labelPosition=right;points=[];portConstraint=eastwest;strokeColor=inherit;" vertex="1" parent="class_quantri">
          <mxGeometry y="52" width="200" height="8" as="geometry" />
        </mxCell>
        <mxCell id="method_quantri_1" value="+ themSinhVien(): boolean" style="text;strokeColor=none;fillColor=none;align=left;verticalAlign=top;spacingLeft=4;spacingRight=4;overflow=hidden;rotatable=0;points=[[0,0.5],[1,0.5]];portConstraint=eastwest;whiteSpace=wrap;html=1;" vertex="1" parent="class_quantri">
          <mxGeometry y="60" width="200" height="26" as="geometry" />
        </mxCell>
        <mxCell id="method_quantri_2" value="+ suaSinhVien(): boolean" style="text;strokeColor=none;fillColor=none;align=left;verticalAlign=top;spacingLeft=4;spacingRight=4;overflow=hidden;rotatable=0;points=[[0,0.5],[1,0.5]];portConstraint=eastwest;whiteSpace=wrap;html=1;" vertex="1" parent="class_quantri">
          <mxGeometry y="86" width="200" height="26" as="geometry" />
        </mxCell>
        <mxCell id="method_quantri_3" value="+ xoaSinhVien(): boolean" style="text;strokeColor=none;fillColor=none;align=left;verticalAlign=top;spacingLeft=4;spacingRight=4;overflow=hidden;rotatable=0;points=[[0,0.5],[1,0.5]];portConstraint=eastwest;whiteSpace=wrap;html=1;" vertex="1" parent="class_quantri">
          <mxGeometry y="112" width="200" height="26" as="geometry" />
        </mxCell>
        <mxCell id="method_quantri_4" value="+ xemDanhSachSinhVien(): void" style="text;strokeColor=none;fillColor=none;align=left;verticalAlign=top;spacingLeft=4;spacingRight=4;overflow=hidden;rotatable=0;points=[[0,0.5],[1,0.5]];portConstraint=eastwest;whiteSpace=wrap;html=1;" vertex="1" parent="class_quantri">
          <mxGeometry y="138" width="200" height="26" as="geometry" />
        </mxCell>
        <mxCell id="method_quantri_5" value="+ xacThucNguoiDung(): boolean" style="text;strokeColor=none;fillColor=none;align=left;verticalAlign=top;spacingLeft=4;spacingRight=4;overflow=hidden;rotatable=0;points=[[0,0.5],[1,0.5]];portConstraint=eastwest;whiteSpace=wrap;html=1;" vertex="1" parent="class_quantri">
          <mxGeometry y="164" width="200" height="26" as="geometry" />
        </mxCell>
        <mxCell id="method_quantri_6" value="+ luuDuLieu(): boolean" style="text;strokeColor=none;fillColor=none;align=left;verticalAlign=top;spacingLeft=4;spacingRight=4;overflow=hidden;rotatable=0;points=[[0,0.5],[1,0.5]];portConstraint=eastwest;whiteSpace=wrap;html=1;" vertex="1" parent="class_quantri">
          <mxGeometry y="190" width="200" height="26" as="geometry" />
        </mxCell>
        <mxCell id="method_quantri_7" value="+ kiemTraDuLieu(): boolean" style="text;strokeColor=none;fillColor=none;align=left;verticalAlign=top;spacingLeft=4;spacingRight=4;overflow=hidden;rotatable=0;points=[[0,0.5],[1,0.5]];portConstraint=eastwest;whiteSpace=wrap;html=1;" vertex="1" parent="class_quantri">
          <mxGeometry y="216" width="200" height="26" as="geometry" />
        </mxCell>
        <mxCell id="class_giaovien" value="Giáo viên" style="swimlane;fontStyle=1;align=center;verticalAlign=top;childLayout=stackLayout;horizontal=1;startSize=26;horizontalStack=0;resizeParent=1;resizeParentMax=0;resizeLast=0;collapsible=1;marginBottom=0;whiteSpace=wrap;html=1;" vertex="1" parent="1">
          <mxGeometry x="700" y="200" width="200" height="156" as="geometry" />
        </mxCell>
        <mxCell id="attr_giaovien_1" value="- maGiaoVien: String" style="text;strokeColor=none;fillColor=none;align=left;verticalAlign=top;spacingLeft=4;spacingRight=4;overflow=hidden;rotatable=0;points=[[0,0.5],[1,0.5]];portConstraint=eastwest;whiteSpace=wrap;html=1;" vertex="1" parent="class_giaovien">
          <mxGeometry y="26" width="200" height="26" as="geometry" />
        </mxCell>
        <mxCell id="attr_giaovien_2" value="- hoTen: String" style="text;strokeColor=none;fillColor=none;align=left;verticalAlign=top;spacingLeft=4;spacingRight=4;overflow=hidden;rotatable=0;points=[[0,0.5],[1,0.5]];portConstraint=eastwest;whiteSpace=wrap;html=1;" vertex="1" parent="class_giaovien">
          <mxGeometry y="52" width="200" height="26" as="geometry" />
        </mxCell>
        <mxCell id="attr_giaovien_3" value="- boMon: String" style="text;strokeColor=none;fillColor=none;align=left;verticalAlign=top;spacingLeft=4;spacingRight=4;overflow=hidden;rotatable=0;points=[[0,0.5],[1,0.5]];portConstraint=eastwest;whiteSpace=wrap;html=1;" vertex="1" parent="class_giaovien">
          <mxGeometry y="78" width="200" height="26" as="geometry" />
        </mxCell>
        <mxCell id="line_giaovien" value="" style="line;strokeWidth=1;fillColor=none;align=left;verticalAlign=middle;spacingTop=-1;spacingLeft=3;spacingRight=3;rotatable=0;labelPosition=right;points=[];portConstraint=eastwest;strokeColor=inherit;" vertex="1" parent="class_giaovien">
          <mxGeometry y="104" width="200" height="8" as="geometry" />
        </mxCell>
        <mxCell id="method_giaovien_1" value="+ dangNhap(): boolean" style="text;strokeColor=none;fillColor=none;align=left;verticalAlign=top;spacingLeft=4;spacingRight=4;overflow=hidden;rotatable=0;points=[[0,0.5],[1,0.5]];portConstraint=eastwest;whiteSpace=wrap;html=1;" vertex="1" parent="class_giaovien">
          <mxGeometry y="112" width="200" height="26" as="geometry" />
        </mxCell>
        <mxCell id="method_giaovien_2" value="+ quanLySinhVien(): void" style="text;strokeColor=none;fillColor=none;align=left;verticalAlign=top;spacingLeft=4;spacingRight=4;overflow=hidden;rotatable=0;points=[[0,0.5],[1,0.5]];portConstraint=eastwest;whiteSpace=wrap;html=1;" vertex="1" parent="class_giaovien">
          <mxGeometry y="138" width="200" height="26" as="geometry" />
        </mxCell>
        <mxCell id="class_database" value="Cơ sở dữ liệu" style="swimlane;fontStyle=1;align=center;verticalAlign=top;childLayout=stackLayout;horizontal=1;startSize=26;horizontalStack=0;resizeParent=1;resizeParentMax=0;resizeLast=0;collapsible=1;marginBottom=0;whiteSpace=wrap;html=1;" vertex="1" parent="1">
          <mxGeometry x="400" y="500" width="200" height="208" as="geometry" />
        </mxCell>
        <mxCell id="attr_database_1" value="- tenCSDL: String" style="text;strokeColor=none;fillColor=none;align=left;verticalAlign=top;spacingLeft=4;spacingRight=4;overflow=hidden;rotatable=0;points=[[0,0.5],[1,0.5]];portConstraint=eastwest;whiteSpace=wrap;html=1;" vertex="1" parent="class_database">
          <mxGeometry y="26" width="200" height="26" as="geometry" />
        </mxCell>
        <mxCell id="line_database" value="" style="line;strokeWidth=1;fillColor=none;align=left;verticalAlign=middle;spacingTop=-1;spacingLeft=3;spacingRight=3;rotatable=0;labelPosition=right;points=[];portConstraint=eastwest;strokeColor=inherit;" vertex="1" parent="class_database">
          <mxGeometry y="52" width="200" height="8" as="geometry" />
        </mxCell>
        <mxCell id="method_database_1" value="+ them(): boolean" style="text;strokeColor=none;fillColor=none;align=left;verticalAlign=top;spacingLeft=4;spacingRight=4;overflow=hidden;rotatable=0;points=[[0,0.5],[1,0.5]];portConstraint=eastwest;whiteSpace=wrap;html=1;" vertex="1" parent="class_database">
          <mxGeometry y="60" width="200" height="26" as="geometry" />
        </mxCell>
        <mxCell id="method_database_2" value="+ sua(): boolean" style="text;strokeColor=none;fillColor=none;align=left;verticalAlign=top;spacingLeft=4;spacingRight=4;overflow=hidden;rotatable=0;points=[[0,0.5],[1,0.5]];portConstraint=eastwest;whiteSpace=wrap;html=1;" vertex="1" parent="class_database">
          <mxGeometry y="86" width="200" height="26" as="geometry" />
        </mxCell>
        <mxCell id="method_database_3" value="+ xoa(): boolean" style="text;strokeColor=none;fillColor=none;align=left;verticalAlign=top;spacingLeft=4;spacingRight=4;overflow=hidden;rotatable=0;points=[[0,0.5],[1,0.5]];portConstraint=eastwest;whiteSpace=wrap;html=1;" vertex="1" parent="class_database">
          <mxGeometry y="112" width="200" height="26" as="geometry" />
        </mxCell>
        <mxCell id="method_database_4" value="+ timKiem(): void" style="text;strokeColor=none;fillColor=none;align=left;verticalAlign=top;spacingLeft=4;spacingRight=4;overflow=hidden;rotatable=0;points=[[0,0.5],[1,0.5]];portConstraint=eastwest;whiteSpace=wrap;html=1;" vertex="1" parent="class_database">
          <mxGeometry y="138" width="200" height="26" as="geometry" />
        </mxCell>
        <mxCell id="method_database_5" value="+ layDanhSach(): List" style="text;strokeColor=none;fillColor=none;align=left;verticalAlign=top;spacingLeft=4;spacingRight=4;overflow=hidden;rotatable=0;points=[[0,0.5],[1,0.5]];portConstraint=eastwest;whiteSpace=wrap;html=1;" vertex="1" parent="class_database">
          <mxGeometry y="164" width="200" height="26" as="geometry" />
        </mxCell>
        <mxCell id="rel_giaovien_quantri" value="" style="endArrow=block;endSize=16;endFill=0;html=1;rounded=0;exitX=0;exitY=0.5;exitDx=0;exitDy=0;entryX=1;entryY=0.5;entryDx=0;entryDy=0;" parent="1" source="class_giaovien" target="class_quantri" edge="1">
          <mxGeometry width="160" relative="1" as="geometry">
            <mxPoint x="860" y="300" as="sourcePoint" />
            <mxPoint x="720" y="330" as="targetPoint" />
          </mxGeometry>
        </mxCell>
        <mxCell id="label_giaovien_quantri" value="1" style="edgeLabel;html=1;align=center;verticalAlign=middle;resizable=0;points=[];" parent="rel_giaovien_quantri" vertex="1" connectable="0">
          <mxGeometry x="-0.2" y="1" relative="1" as="geometry">
            <mxPoint x="-15" y="-5" as="offset" />
          </mxGeometry>
        </mxCell>
        <mxCell id="label_giaovien_quantri_multi" value="*" style="edgeLabel;html=1;align=center;verticalAlign=middle;resizable=0;points=[];" parent="rel_giaovien_quantri" vertex="1" connectable="0">
          <mxGeometry x="-0.1" y="-1" relative="1" as="geometry">
            <mxPoint x="15" y="-5" as="offset" />
          </mxGeometry>
        </mxCell>
        <mxCell id="rel_quantri_sinhvien" value="" style="endArrow=block;endSize=16;endFill=0;html=1;rounded=0;exitX=0;exitY=0.5;exitDx=0;exitDy=0;entryX=1;entryY=0.5;entryDx=0;entryDy=0;" parent="1" source="class_quantri" target="class_sinhvien" edge="1">
          <mxGeometry width="160" relative="1" as="geometry">
            <mxPoint x="480" y="330" as="sourcePoint" />
            <mxPoint x="340" y="320" as="targetPoint" />
          </mxGeometry>
        </mxCell>
        <mxCell id="label_quantri_sinhvien" value="1" style="edgeLabel;html=1;align=center;verticalAlign=middle;resizable=0;points=[];" parent="rel_quantri_sinhvien" vertex="1" connectable="0">
          <mxGeometry x="-0.2" y="1" relative="1" as="geometry">
            <mxPoint x="-15" y="-5" as="offset" />
          </mxGeometry>
        </mxCell>
        <mxCell id="label_quantri_sinhvien_multi" value="*" style="edgeLabel;html=1;align=center;verticalAlign=middle;resizable=0;points=[];" parent="rel_quantri_sinhvien" vertex="1" connectable="0">
          <mxGeometry x="-0.1" y="-1" relative="1" as="geometry">
            <mxPoint x="25" y="-5" as="offset" />
          </mxGeometry>
        </mxCell>
        <mxCell id="rel_quantri_database" value="" style="endArrow=block;endSize=16;endFill=0;html=1;rounded=0;exitX=0.5;exitY=1;exitDx=0;exitDy=0;entryX=0.5;entryY=0;entryDx=0;entryDy=0;" parent="1" source="class_quantri" target="class_database" edge="1">
          <mxGeometry width="160" relative="1" as="geometry">
            <mxPoint x="600" y="460" as="sourcePoint" />
            <mxPoint x="600" y="580" as="targetPoint" />
          </mxGeometry>
        </mxCell>
        <mxCell id="label_quantri_database" value="1" style="edgeLabel;html=1;align=center;verticalAlign=middle;resizable=0;points=[];" parent="rel_quantri_database" vertex="1" connectable="0">
          <mxGeometry x="-0.2" y="1" relative="1" as="geometry">
            <mxPoint x="15" y="-5" as="offset" />
          </mxGeometry>
        </mxCell>
        <mxCell id="label_quantri_database_multi" value="1" style="edgeLabel;html=1;align=center;verticalAlign=middle;resizable=0;points=[];" parent="rel_quantri_database" vertex="1" connectable="0">
          <mxGeometry x="-0.1" y="-1" relative="1" as="geometry">
            <mxPoint x="25" y="-5" as="offset" />
          </mxGeometry>
        </mxCell>
      </root>
    </mxGraphModel>
  </diagram>
  <diagram id="bai8_seq" name="Bai8_Sequence_ThemSinhVien">
    <mxGraphModel dx="1046" dy="660" grid="1" gridSize="10" guides="1" tooltips="1" connect="1" arrows="1" fold="1" page="1" pageScale="1" pageWidth="1400" pageHeight="1200" math="0" shadow="0">
      <root>
        <mxCell id="0" />
        <mxCell id="1" parent="0" />
        <mxCell id="lf_user" value="" style="shape=umlLifeline;perimeter=lifelinePerimeter;html=1;container=1;participant=umlActor;" parent="1" vertex="1">
          <mxGeometry x="77" y="100" width="16" height="900" as="geometry" />
        </mxCell>
        <mxCell id="label_user" value="Người dùng&#xa;(Giáo viên)" style="text;html=1;whiteSpace=wrap;strokeColor=none;fillColor=none;align=center;verticalAlign=middle;rounded=0;" parent="1" vertex="1">
          <mxGeometry x="30" y="70" width="110" height="30" as="geometry" />
        </mxCell>
        <mxCell id="lf_system" value=":Hệ thống quản lý" style="shape=umlLifeline;perimeter=lifelinePerimeter;html=1;container=1;" parent="1" vertex="1">
          <mxGeometry x="250" y="100" width="160" height="900" as="geometry" />
        </mxCell>
        <mxCell id="lf_database" value=":Cơ sở dữ liệu" style="shape=umlLifeline;perimeter=lifelinePerimeter;html=1;container=1;" parent="1" vertex="1">
          <mxGeometry x="500" y="100" width="150" height="900" as="geometry" />
        </mxCell>
        <mxCell id="act_system" value="" style="html=1;points=[[0,0,0,0,5],[0,1,0,0,-5],[1,0,0,0,5],[1,1,0,0,-5]];perimeter=orthogonalPerimeter;outlineConnect=0;targetShapes=umlLifeline;portConstraint=eastwest;newEdgeStyle={&quot;curved&quot;:0,&quot;rounded&quot;:0};" vertex="1" parent="lf_system">
          <mxGeometry x="70" y="140" width="10" height="740" as="geometry" />
        </mxCell>
        <mxCell id="act_db1" value="" style="html=1;points=[[0,0,0,0,5],[0,1,0,0,-5],[1,0,0,0,5],[1,1,0,0,-5]];perimeter=orthogonalPerimeter;outlineConnect=0;targetShapes=umlLifeline;portConstraint=eastwest;newEdgeStyle={&quot;curved&quot;:0,&quot;rounded&quot;:0};" vertex="1" parent="lf_database">
          <mxGeometry x="70" y="230" width="10" height="80" as="geometry" />
        </mxCell>
        <mxCell id="act_db2" value="" style="html=1;points=[[0,0,0,0,5],[0,1,0,0,-5],[1,0,0,0,5],[1,1,0,0,-5]];perimeter=orthogonalPerimeter;outlineConnect=0;targetShapes=umlLifeline;portConstraint=eastwest;newEdgeStyle={&quot;curved&quot;:0,&quot;rounded&quot;:0};" vertex="1" parent="lf_database">
          <mxGeometry x="70" y="390" width="10" height="60" as="geometry" />
        </mxCell>
        <mxCell id="act_db3" value="" style="html=1;points=[[0,0,0,0,5],[0,1,0,0,-5],[1,0,0,0,5],[1,1,0,0,-5]];perimeter=orthogonalPerimeter;outlineConnect=0;targetShapes=umlLifeline;portConstraint=eastwest;newEdgeStyle={&quot;curved&quot;:0,&quot;rounded&quot;:0};" vertex="1" parent="lf_database">
          <mxGeometry x="70" y="520" width="10" height="80" as="geometry" />
        </mxCell>
        <mxCell id="m1" value="1. themSinhVien(thongTinSinhVien)" style="endArrow=classic;html=1;" parent="1" edge="1">
          <mxGeometry relative="1" as="geometry">
            <mxPoint x="85" y="180" as="sourcePoint" />
            <mxPoint x="330" y="180" as="targetPoint" />
          </mxGeometry>
        </mxCell>
        <mxCell id="m2" value="2. xacThucNguoiDung()" style="endArrow=classic;html=1;" parent="1" edge="1">
          <mxGeometry relative="1" as="geometry">
            <mxPoint x="330" y="220" as="sourcePoint" />
            <mxPoint x="330" y="220" as="targetPoint" />
            <Array as="points">
              <mxPoint x="400" y="220" />
            </Array>
          </mxGeometry>
        </mxCell>
        <mxCell id="m3" value="3. kiemTraTaiKhoan(maGiaoVien)" style="endArrow=classic;html=1;" parent="1" edge="1">
          <mxGeometry relative="1" as="geometry">
            <mxPoint x="330" y="250" as="sourcePoint" />
            <mxPoint x="575" y="250" as="targetPoint" />
          </mxGeometry>
        </mxCell>
        <mxCell id="r3" value="4. ketQuaXacThuc" style="endArrow=open;dashed=1;html=1;" parent="1" edge="1">
          <mxGeometry relative="1" as="geometry">
            <mxPoint x="575" y="280" as="sourcePoint" />
            <mxPoint x="330" y="280" as="targetPoint" />
          </mxGeometry>
        </mxCell>
        <mxCell id="r2" value="5. xacThucThanhCong" style="endArrow=open;dashed=1;html=1;" parent="1" edge="1">
          <mxGeometry relative="1" as="geometry">
            <mxPoint x="400" y="310" as="sourcePoint" />
            <mxPoint x="330" y="310" as="targetPoint" />
          </mxGeometry>
        </mxCell>
        <mxCell id="m4" value="6. kiemTraDuLieu(thongTinSinhVien)" style="endArrow=classic;html=1;" parent="1" edge="1">
          <mxGeometry relative="1" as="geometry">
            <mxPoint x="330" y="350" as="sourcePoint" />
            <mxPoint x="330" y="350" as="targetPoint" />
            <Array as="points">
              <mxPoint x="400" y="350" />
            </Array>
          </mxGeometry>
        </mxCell>
        <mxCell id="m5" value="7. kiemTraTrungMa(maSinhVien)" style="endArrow=classic;html=1;" parent="1" edge="1">
          <mxGeometry relative="1" as="geometry">
            <mxPoint x="330" y="420" as="sourcePoint" />
            <mxPoint x="575" y="420" as="targetPoint" />
          </mxGeometry>
        </mxCell>
        <mxCell id="r5" value="8. khongTrungMa" style="endArrow=open;dashed=1;html=1;" parent="1" edge="1">
          <mxGeometry relative="1" as="geometry">
            <mxPoint x="575" y="440" as="sourcePoint" />
            <mxPoint x="330" y="440" as="targetPoint" />
          </mxGeometry>
        </mxCell>
        <mxCell id="r4" value="9. duLieuHopLe" style="endArrow=open;dashed=1;html=1;" parent="1" edge="1">
          <mxGeometry relative="1" as="geometry">
            <mxPoint x="400" y="450" as="sourcePoint" />
            <mxPoint x="330" y="450" as="targetPoint" />
          </mxGeometry>
        </mxCell>
        <mxCell id="m6" value="10. luuDuLieu(thongTinSinhVien)" style="endArrow=classic;html=1;" parent="1" edge="1">
          <mxGeometry relative="1" as="geometry">
            <mxPoint x="330" y="490" as="sourcePoint" />
            <mxPoint x="330" y="490" as="targetPoint" />
            <Array as="points">
              <mxPoint x="400" y="490" />
            </Array>
          </mxGeometry>
        </mxCell>
        <mxCell id="m7" value="11. them(thongTinSinhVien)" style="endArrow=classic;html=1;" parent="1" edge="1">
          <mxGeometry relative="1" as="geometry">
            <mxPoint x="330" y="560" as="sourcePoint" />
            <mxPoint x="575" y="560" as="targetPoint" />
          </mxGeometry>
        </mxCell>
        <mxCell id="r7" value="12. ketQuaLuu" style="endArrow=open;dashed=1;html=1;" parent="1" edge="1">
          <mxGeometry relative="1" as="geometry">
            <mxPoint x="575" y="590" as="sourcePoint" />
            <mxPoint x="330" y="590" as="targetPoint" />
          </mxGeometry>
        </mxCell>
        <mxCell id="r6" value="13. luuThanhCong" style="endArrow=open;dashed=1;html=1;" parent="1" edge="1">
          <mxGeometry relative="1" as="geometry">
            <mxPoint x="400" y="600" as="sourcePoint" />
            <mxPoint x="330" y="600" as="targetPoint" />
          </mxGeometry>
        </mxCell>
        <mxCell id="r1" value="14. thongBaoThemThanhCong" style="endArrow=open;dashed=1;html=1;" parent="1" edge="1">
          <mxGeometry relative="1" as="geometry">
            <mxPoint x="330" y="630" as="sourcePoint" />
            <mxPoint x="85" y="630" as="targetPoint" />
          </mxGeometry>
        </mxCell>
      </root>
    </mxGraphModel>
  </diagram>
</mxfile>
